<mxfile host="Electron" agent="Mozilla/5.0 (Macintosh; Intel Mac OS X 10_15_7) AppleWebKit/537.36 (KHTML, like Gecko) draw.io/24.7.8 Chrome/128.0.6613.36 Electron/32.0.1 Safari/537.36" version="24.7.8">
  <diagram name="Page-1" id="O3VUC4EruAWj7rbk-weQ">
    <mxGraphModel dx="2001" dy="874" grid="1" gridSize="10" guides="1" tooltips="1" connect="1" arrows="1" fold="1" page="1" pageScale="1" pageWidth="850" pageHeight="1100" math="0" shadow="0">
      <root>
        <mxCell id="0" />
        <mxCell id="1" parent="0" />
        <mxCell id="uZB3BlQuaGmwkZELH0Op-1" value="DB" style="shape=cylinder3;whiteSpace=wrap;html=1;boundedLbl=1;backgroundOutline=1;size=19;" parent="1" vertex="1">
          <mxGeometry x="390" y="320" width="60" height="90" as="geometry" />
        </mxCell>
        <mxCell id="uZB3BlQuaGmwkZELH0Op-2" value="" style="endArrow=none;dashed=1;html=1;rounded=0;" parent="1" edge="1">
          <mxGeometry width="50" height="50" relative="1" as="geometry">
            <mxPoint x="720" y="640" as="sourcePoint" />
            <mxPoint x="720" y="650" as="targetPoint" />
            <Array as="points">
              <mxPoint x="120" y="640" />
              <mxPoint x="120" y="160" />
              <mxPoint x="720" y="160" />
            </Array>
          </mxGeometry>
        </mxCell>
        <mxCell id="uZB3BlQuaGmwkZELH0Op-4" value="Search Vehicle (Public)" style="ellipse;whiteSpace=wrap;html=1;" parent="1" vertex="1">
          <mxGeometry x="140" y="560" width="80" height="50" as="geometry" />
        </mxCell>
        <mxCell id="uZB3BlQuaGmwkZELH0Op-8" value="Login Form" style="rounded=0;whiteSpace=wrap;html=1;" parent="1" vertex="1">
          <mxGeometry x="-30" y="460" width="120" height="60" as="geometry" />
        </mxCell>
        <mxCell id="uZB3BlQuaGmwkZELH0Op-10" value="Login" style="ellipse;whiteSpace=wrap;html=1;" parent="1" vertex="1">
          <mxGeometry x="150" y="410" width="80" height="50" as="geometry" />
        </mxCell>
        <mxCell id="uZB3BlQuaGmwkZELH0Op-11" value="" style="endArrow=classic;html=1;rounded=0;exitX=0;exitY=1;exitDx=0;exitDy=-19;exitPerimeter=0;entryX=1;entryY=0.5;entryDx=0;entryDy=0;" parent="1" source="uZB3BlQuaGmwkZELH0Op-1" target="uZB3BlQuaGmwkZELH0Op-10" edge="1">
          <mxGeometry width="50" height="50" relative="1" as="geometry">
            <mxPoint x="400" y="410" as="sourcePoint" />
            <mxPoint x="450" y="360" as="targetPoint" />
          </mxGeometry>
        </mxCell>
        <mxCell id="uZB3BlQuaGmwkZELH0Op-12" value="" style="endArrow=classic;html=1;rounded=0;exitX=1;exitY=0;exitDx=0;exitDy=0;entryX=0;entryY=0.5;entryDx=0;entryDy=0;" parent="1" source="uZB3BlQuaGmwkZELH0Op-8" target="uZB3BlQuaGmwkZELH0Op-10" edge="1">
          <mxGeometry width="50" height="50" relative="1" as="geometry">
            <mxPoint x="400" y="410" as="sourcePoint" />
            <mxPoint x="450" y="360" as="targetPoint" />
          </mxGeometry>
        </mxCell>
        <mxCell id="uZB3BlQuaGmwkZELH0Op-16" value="Part Order Form" style="rounded=0;whiteSpace=wrap;html=1;" parent="1" vertex="1">
          <mxGeometry y="80" width="120" height="60" as="geometry" />
        </mxCell>
        <mxCell id="uZB3BlQuaGmwkZELH0Op-17" value="Parts Order" style="ellipse;whiteSpace=wrap;html=1;" parent="1" vertex="1">
          <mxGeometry x="130" y="230" width="80" height="50" as="geometry" />
        </mxCell>
        <mxCell id="uZB3BlQuaGmwkZELH0Op-27" value="" style="endArrow=classic;html=1;rounded=0;exitX=0.25;exitY=1;exitDx=0;exitDy=0;entryX=0.5;entryY=0;entryDx=0;entryDy=0;" parent="1" source="uZB3BlQuaGmwkZELH0Op-16" target="uZB3BlQuaGmwkZELH0Op-17" edge="1">
          <mxGeometry width="50" height="50" relative="1" as="geometry">
            <mxPoint x="530" y="210" as="sourcePoint" />
            <mxPoint x="580" y="160" as="targetPoint" />
          </mxGeometry>
        </mxCell>
        <mxCell id="uZB3BlQuaGmwkZELH0Op-28" value="Add Vehicle Form" style="rounded=0;whiteSpace=wrap;html=1;" parent="1" vertex="1">
          <mxGeometry x="220" y="60" width="120" height="60" as="geometry" />
        </mxCell>
        <mxCell id="uZB3BlQuaGmwkZELH0Op-29" value="Add Vehicle" style="ellipse;whiteSpace=wrap;html=1;" parent="1" vertex="1">
          <mxGeometry x="270" y="180" width="80" height="50" as="geometry" />
        </mxCell>
        <mxCell id="uZB3BlQuaGmwkZELH0Op-30" value="" style="endArrow=classic;html=1;rounded=0;exitX=0.5;exitY=1;exitDx=0;exitDy=0;entryX=0.5;entryY=0;entryDx=0;entryDy=0;" parent="1" source="uZB3BlQuaGmwkZELH0Op-28" target="uZB3BlQuaGmwkZELH0Op-29" edge="1">
          <mxGeometry width="50" height="50" relative="1" as="geometry">
            <mxPoint x="400" y="300" as="sourcePoint" />
            <mxPoint x="450" y="250" as="targetPoint" />
          </mxGeometry>
        </mxCell>
        <mxCell id="uZB3BlQuaGmwkZELH0Op-31" value="" style="endArrow=classic;html=1;rounded=0;exitX=1;exitY=1;exitDx=0;exitDy=0;entryX=0.366;entryY=0.034;entryDx=0;entryDy=0;entryPerimeter=0;" parent="1" source="uZB3BlQuaGmwkZELH0Op-29" target="uZB3BlQuaGmwkZELH0Op-1" edge="1">
          <mxGeometry width="50" height="50" relative="1" as="geometry">
            <mxPoint x="400" y="300" as="sourcePoint" />
            <mxPoint x="450" y="250" as="targetPoint" />
          </mxGeometry>
        </mxCell>
        <mxCell id="uZB3BlQuaGmwkZELH0Op-34" value="Sales Transactions Form&amp;nbsp;" style="rounded=0;whiteSpace=wrap;html=1;" parent="1" vertex="1">
          <mxGeometry x="510" y="60" width="120" height="60" as="geometry" />
        </mxCell>
        <mxCell id="uZB3BlQuaGmwkZELH0Op-36" value="Sales Transaction" style="ellipse;whiteSpace=wrap;html=1;" parent="1" vertex="1">
          <mxGeometry x="500" y="210" width="80" height="50" as="geometry" />
        </mxCell>
        <mxCell id="uZB3BlQuaGmwkZELH0Op-39" value="" style="endArrow=classic;html=1;rounded=0;entryX=0.713;entryY=0.04;entryDx=0;entryDy=0;entryPerimeter=0;exitX=0.34;exitY=1.031;exitDx=0;exitDy=0;exitPerimeter=0;" parent="1" source="uZB3BlQuaGmwkZELH0Op-34" target="uZB3BlQuaGmwkZELH0Op-36" edge="1">
          <mxGeometry width="50" height="50" relative="1" as="geometry">
            <mxPoint x="550" y="160" as="sourcePoint" />
            <mxPoint x="450" y="250" as="targetPoint" />
          </mxGeometry>
        </mxCell>
        <mxCell id="uZB3BlQuaGmwkZELH0Op-40" value="View Sellers History" style="ellipse;whiteSpace=wrap;html=1;" parent="1" vertex="1">
          <mxGeometry x="620" y="260" width="80" height="50" as="geometry" />
        </mxCell>
        <mxCell id="uZB3BlQuaGmwkZELH0Op-41" value="View Average Time in Inventory" style="ellipse;whiteSpace=wrap;html=1;" parent="1" vertex="1">
          <mxGeometry x="585" y="350" width="90" height="60" as="geometry" />
        </mxCell>
        <mxCell id="uZB3BlQuaGmwkZELH0Op-42" value="View Price per condition" style="ellipse;whiteSpace=wrap;html=1;" parent="1" vertex="1">
          <mxGeometry x="590" y="440" width="80" height="50" as="geometry" />
        </mxCell>
        <mxCell id="uZB3BlQuaGmwkZELH0Op-43" value="View Parts Stats" style="ellipse;whiteSpace=wrap;html=1;" parent="1" vertex="1">
          <mxGeometry x="570" y="530" width="80" height="50" as="geometry" />
        </mxCell>
        <mxCell id="uZB3BlQuaGmwkZELH0Op-44" value="Parts Stats" style="rounded=0;whiteSpace=wrap;html=1;" parent="1" vertex="1">
          <mxGeometry x="760" y="570" width="120" height="60" as="geometry" />
        </mxCell>
        <mxCell id="uZB3BlQuaGmwkZELH0Op-45" value="" style="endArrow=classic;html=1;rounded=0;exitX=1;exitY=0.5;exitDx=0;exitDy=0;exitPerimeter=0;entryX=0;entryY=0.5;entryDx=0;entryDy=0;" parent="1" source="uZB3BlQuaGmwkZELH0Op-1" target="uZB3BlQuaGmwkZELH0Op-40" edge="1">
          <mxGeometry width="50" height="50" relative="1" as="geometry">
            <mxPoint x="400" y="420" as="sourcePoint" />
            <mxPoint x="450" y="370" as="targetPoint" />
          </mxGeometry>
        </mxCell>
        <mxCell id="uZB3BlQuaGmwkZELH0Op-46" value="" style="endArrow=classic;html=1;rounded=0;entryX=0.012;entryY=0.375;entryDx=0;entryDy=0;exitX=1;exitY=0;exitDx=0;exitDy=58;exitPerimeter=0;entryPerimeter=0;" parent="1" source="uZB3BlQuaGmwkZELH0Op-1" target="uZB3BlQuaGmwkZELH0Op-41" edge="1">
          <mxGeometry width="50" height="50" relative="1" as="geometry">
            <mxPoint x="470" y="420" as="sourcePoint" />
            <mxPoint x="630" y="355" as="targetPoint" />
          </mxGeometry>
        </mxCell>
        <mxCell id="uZB3BlQuaGmwkZELH0Op-47" value="" style="endArrow=classic;html=1;rounded=0;entryX=0.05;entryY=0.2;entryDx=0;entryDy=0;exitX=1;exitY=1;exitDx=0;exitDy=-19;exitPerimeter=0;entryPerimeter=0;" parent="1" source="uZB3BlQuaGmwkZELH0Op-1" target="uZB3BlQuaGmwkZELH0Op-42" edge="1">
          <mxGeometry width="50" height="50" relative="1" as="geometry">
            <mxPoint x="460" y="388" as="sourcePoint" />
            <mxPoint x="642" y="397" as="targetPoint" />
          </mxGeometry>
        </mxCell>
        <mxCell id="uZB3BlQuaGmwkZELH0Op-48" value="" style="endArrow=classic;html=1;rounded=0;exitX=0.855;exitY=1;exitDx=0;exitDy=-5.51;exitPerimeter=0;" parent="1" source="uZB3BlQuaGmwkZELH0Op-1" target="uZB3BlQuaGmwkZELH0Op-43" edge="1">
          <mxGeometry width="50" height="50" relative="1" as="geometry">
            <mxPoint x="460" y="401" as="sourcePoint" />
            <mxPoint x="634" y="460" as="targetPoint" />
          </mxGeometry>
        </mxCell>
        <mxCell id="uZB3BlQuaGmwkZELH0Op-49" value="" style="endArrow=classic;html=1;rounded=0;exitX=1;exitY=0.5;exitDx=0;exitDy=0;entryX=0;entryY=0.5;entryDx=0;entryDy=0;" parent="1" source="uZB3BlQuaGmwkZELH0Op-40" target="xfFFfN3VhaVvBuw0yQ8A-14" edge="1">
          <mxGeometry width="50" height="50" relative="1" as="geometry">
            <mxPoint x="400" y="420" as="sourcePoint" />
            <mxPoint x="450" y="370" as="targetPoint" />
          </mxGeometry>
        </mxCell>
        <mxCell id="uZB3BlQuaGmwkZELH0Op-50" value="" style="endArrow=classic;html=1;rounded=0;exitX=1;exitY=0.5;exitDx=0;exitDy=0;entryX=0;entryY=0.25;entryDx=0;entryDy=0;" parent="1" source="uZB3BlQuaGmwkZELH0Op-41" target="xfFFfN3VhaVvBuw0yQ8A-15" edge="1">
          <mxGeometry width="50" height="50" relative="1" as="geometry">
            <mxPoint x="710" y="355" as="sourcePoint" />
            <mxPoint x="790" y="392" as="targetPoint" />
          </mxGeometry>
        </mxCell>
        <mxCell id="uZB3BlQuaGmwkZELH0Op-51" value="" style="endArrow=classic;html=1;rounded=0;exitX=1;exitY=0.5;exitDx=0;exitDy=0;entryX=0;entryY=0.5;entryDx=0;entryDy=0;" parent="1" source="uZB3BlQuaGmwkZELH0Op-42" target="xfFFfN3VhaVvBuw0yQ8A-19" edge="1">
          <mxGeometry width="50" height="50" relative="1" as="geometry">
            <mxPoint x="710" y="415" as="sourcePoint" />
            <mxPoint x="800" y="402" as="targetPoint" />
          </mxGeometry>
        </mxCell>
        <mxCell id="uZB3BlQuaGmwkZELH0Op-52" value="" style="endArrow=classic;html=1;rounded=0;exitX=1;exitY=0.5;exitDx=0;exitDy=0;entryX=0;entryY=0.5;entryDx=0;entryDy=0;" parent="1" source="uZB3BlQuaGmwkZELH0Op-43" target="uZB3BlQuaGmwkZELH0Op-44" edge="1">
          <mxGeometry width="50" height="50" relative="1" as="geometry">
            <mxPoint x="710" y="475" as="sourcePoint" />
            <mxPoint x="790" y="420" as="targetPoint" />
          </mxGeometry>
        </mxCell>
        <mxCell id="uZB3BlQuaGmwkZELH0Op-61" value="Parts status" style="rounded=0;whiteSpace=wrap;html=1;" parent="1" vertex="1">
          <mxGeometry x="-60" y="295" width="120" height="60" as="geometry" />
        </mxCell>
        <mxCell id="uZB3BlQuaGmwkZELH0Op-62" value="Parts Status Update" style="ellipse;whiteSpace=wrap;html=1;" parent="1" vertex="1">
          <mxGeometry x="150" y="310" width="80" height="50" as="geometry" />
        </mxCell>
        <mxCell id="uZB3BlQuaGmwkZELH0Op-64" value="" style="endArrow=classic;startArrow=classic;html=1;rounded=0;entryX=1;entryY=0.5;entryDx=0;entryDy=0;" parent="1" source="uZB3BlQuaGmwkZELH0Op-62" target="uZB3BlQuaGmwkZELH0Op-61" edge="1">
          <mxGeometry width="50" height="50" relative="1" as="geometry">
            <mxPoint x="400" y="420" as="sourcePoint" />
            <mxPoint x="450" y="370" as="targetPoint" />
          </mxGeometry>
        </mxCell>
        <mxCell id="uZB3BlQuaGmwkZELH0Op-65" value="" style="endArrow=classic;startArrow=classic;html=1;rounded=0;exitX=1;exitY=0.5;exitDx=0;exitDy=0;entryX=0;entryY=0.5;entryDx=0;entryDy=0;entryPerimeter=0;" parent="1" source="uZB3BlQuaGmwkZELH0Op-62" target="uZB3BlQuaGmwkZELH0Op-1" edge="1">
          <mxGeometry width="50" height="50" relative="1" as="geometry">
            <mxPoint x="400" y="420" as="sourcePoint" />
            <mxPoint x="450" y="370" as="targetPoint" />
          </mxGeometry>
        </mxCell>
        <mxCell id="uZB3BlQuaGmwkZELH0Op-71" value="Search Form/Details Page(Public)" style="rounded=0;whiteSpace=wrap;html=1;" parent="1" vertex="1">
          <mxGeometry x="-40" y="660" width="120" height="60" as="geometry" />
        </mxCell>
        <mxCell id="uZB3BlQuaGmwkZELH0Op-72" value="" style="endArrow=classic;startArrow=classic;html=1;rounded=0;" parent="1" target="uZB3BlQuaGmwkZELH0Op-4" edge="1">
          <mxGeometry width="50" height="50" relative="1" as="geometry">
            <mxPoint x="81" y="660" as="sourcePoint" />
            <mxPoint x="450" y="370" as="targetPoint" />
          </mxGeometry>
        </mxCell>
        <mxCell id="uZB3BlQuaGmwkZELH0Op-73" value="" style="endArrow=classic;startArrow=classic;html=1;rounded=0;exitX=1;exitY=0;exitDx=0;exitDy=0;" parent="1" source="uZB3BlQuaGmwkZELH0Op-4" target="uZB3BlQuaGmwkZELH0Op-1" edge="1">
          <mxGeometry width="50" height="50" relative="1" as="geometry">
            <mxPoint x="400" y="420" as="sourcePoint" />
            <mxPoint x="450" y="370" as="targetPoint" />
          </mxGeometry>
        </mxCell>
        <mxCell id="uZB3BlQuaGmwkZELH0Op-74" value="" style="endArrow=classic;html=1;rounded=0;entryX=0;entryY=0;entryDx=0;entryDy=19;entryPerimeter=0;" parent="1" source="uZB3BlQuaGmwkZELH0Op-17" target="uZB3BlQuaGmwkZELH0Op-1" edge="1">
          <mxGeometry width="50" height="50" relative="1" as="geometry">
            <mxPoint x="400" y="420" as="sourcePoint" />
            <mxPoint x="450" y="370" as="targetPoint" />
          </mxGeometry>
        </mxCell>
        <mxCell id="uZB3BlQuaGmwkZELH0Op-75" value="" style="endArrow=classic;html=1;rounded=0;exitX=0.333;exitY=0.979;exitDx=0;exitDy=0;exitPerimeter=0;entryX=1;entryY=0;entryDx=0;entryDy=32;entryPerimeter=0;" parent="1" source="uZB3BlQuaGmwkZELH0Op-36" target="uZB3BlQuaGmwkZELH0Op-1" edge="1">
          <mxGeometry width="50" height="50" relative="1" as="geometry">
            <mxPoint x="400" y="420" as="sourcePoint" />
            <mxPoint x="450" y="370" as="targetPoint" />
          </mxGeometry>
        </mxCell>
        <mxCell id="uZB3BlQuaGmwkZELH0Op-76" value="Search Form (Privileged )" style="rounded=0;whiteSpace=wrap;html=1;" parent="1" vertex="1">
          <mxGeometry x="140" y="670" width="120" height="60" as="geometry" />
        </mxCell>
        <mxCell id="uZB3BlQuaGmwkZELH0Op-77" value="Search Vehicle (Privileged)" style="ellipse;whiteSpace=wrap;html=1;" parent="1" vertex="1">
          <mxGeometry x="280" y="530" width="90" height="50" as="geometry" />
        </mxCell>
        <mxCell id="uZB3BlQuaGmwkZELH0Op-78" value="" style="endArrow=classic;html=1;rounded=0;exitX=0.307;exitY=1.014;exitDx=0;exitDy=0;exitPerimeter=0;entryX=0.604;entryY=-0.019;entryDx=0;entryDy=0;entryPerimeter=0;" parent="1" source="uZB3BlQuaGmwkZELH0Op-1" target="uZB3BlQuaGmwkZELH0Op-77" edge="1">
          <mxGeometry width="50" height="50" relative="1" as="geometry">
            <mxPoint x="430" y="460" as="sourcePoint" />
            <mxPoint x="480" y="410" as="targetPoint" />
          </mxGeometry>
        </mxCell>
        <mxCell id="uZB3BlQuaGmwkZELH0Op-80" value="Details Page" style="rounded=0;whiteSpace=wrap;html=1;" parent="1" vertex="1">
          <mxGeometry x="390" y="680" width="80" height="60" as="geometry" />
        </mxCell>
        <mxCell id="uZB3BlQuaGmwkZELH0Op-81" value="View Vehicle" style="ellipse;whiteSpace=wrap;html=1;" parent="1" vertex="1">
          <mxGeometry x="390" y="550" width="80" height="50" as="geometry" />
        </mxCell>
        <mxCell id="uZB3BlQuaGmwkZELH0Op-82" value="" style="endArrow=classic;html=1;rounded=0;entryX=0.41;entryY=0.002;entryDx=0;entryDy=0;entryPerimeter=0;exitX=0.5;exitY=1;exitDx=0;exitDy=0;exitPerimeter=0;" parent="1" source="uZB3BlQuaGmwkZELH0Op-1" target="uZB3BlQuaGmwkZELH0Op-81" edge="1">
          <mxGeometry width="50" height="50" relative="1" as="geometry">
            <mxPoint x="440" y="410" as="sourcePoint" />
            <mxPoint x="450" y="360" as="targetPoint" />
          </mxGeometry>
        </mxCell>
        <mxCell id="uZB3BlQuaGmwkZELH0Op-83" value="" style="endArrow=classic;html=1;rounded=0;exitX=0.5;exitY=1;exitDx=0;exitDy=0;entryX=0.598;entryY=0.012;entryDx=0;entryDy=0;entryPerimeter=0;" parent="1" source="uZB3BlQuaGmwkZELH0Op-81" target="uZB3BlQuaGmwkZELH0Op-80" edge="1">
          <mxGeometry width="50" height="50" relative="1" as="geometry">
            <mxPoint x="400" y="410" as="sourcePoint" />
            <mxPoint x="450" y="360" as="targetPoint" />
          </mxGeometry>
        </mxCell>
        <mxCell id="xfFFfN3VhaVvBuw0yQ8A-3" value="Search Customer" style="ellipse;whiteSpace=wrap;html=1;" vertex="1" parent="1">
          <mxGeometry x="380" y="170" width="80" height="50" as="geometry" />
        </mxCell>
        <mxCell id="xfFFfN3VhaVvBuw0yQ8A-12" value="View Vehicle" style="ellipse;whiteSpace=wrap;html=1;" vertex="1" parent="1">
          <mxGeometry x="180" y="180" width="80" height="50" as="geometry" />
        </mxCell>
        <mxCell id="xfFFfN3VhaVvBuw0yQ8A-13" value="" style="endArrow=classic;html=1;rounded=0;exitX=0;exitY=0;exitDx=0;exitDy=0;entryX=0.674;entryY=0.975;entryDx=0;entryDy=0;entryPerimeter=0;" edge="1" parent="1" source="xfFFfN3VhaVvBuw0yQ8A-12" target="uZB3BlQuaGmwkZELH0Op-16">
          <mxGeometry width="50" height="50" relative="1" as="geometry">
            <mxPoint x="310" y="440" as="sourcePoint" />
            <mxPoint x="360" y="390" as="targetPoint" />
          </mxGeometry>
        </mxCell>
        <mxCell id="xfFFfN3VhaVvBuw0yQ8A-14" value="Sellers history" style="rounded=0;whiteSpace=wrap;html=1;" vertex="1" parent="1">
          <mxGeometry x="740" y="190" width="120" height="60" as="geometry" />
        </mxCell>
        <mxCell id="xfFFfN3VhaVvBuw0yQ8A-15" value="Average Time in Inventory" style="rounded=0;whiteSpace=wrap;html=1;" vertex="1" parent="1">
          <mxGeometry x="750" y="335" width="120" height="60" as="geometry" />
        </mxCell>
        <mxCell id="xfFFfN3VhaVvBuw0yQ8A-16" value="" style="endArrow=classic;html=1;rounded=0;entryX=0.674;entryY=0.975;entryDx=0;entryDy=0;entryPerimeter=0;exitX=0.145;exitY=0;exitDx=0;exitDy=5.51;exitPerimeter=0;" edge="1" parent="1" source="uZB3BlQuaGmwkZELH0Op-1">
          <mxGeometry width="50" height="50" relative="1" as="geometry">
            <mxPoint x="310" y="260" as="sourcePoint" />
            <mxPoint x="230" y="229" as="targetPoint" />
          </mxGeometry>
        </mxCell>
        <mxCell id="xfFFfN3VhaVvBuw0yQ8A-19" value="Price Per Condition" style="rounded=0;whiteSpace=wrap;html=1;" vertex="1" parent="1">
          <mxGeometry x="750" y="430" width="120" height="60" as="geometry" />
        </mxCell>
        <mxCell id="xfFFfN3VhaVvBuw0yQ8A-20" value="" style="endArrow=classic;startArrow=classic;html=1;rounded=0;exitX=1;exitY=1;exitDx=0;exitDy=0;entryX=0;entryY=0;entryDx=0;entryDy=0;" edge="1" parent="1" source="uZB3BlQuaGmwkZELH0Op-28" target="xfFFfN3VhaVvBuw0yQ8A-3">
          <mxGeometry width="50" height="50" relative="1" as="geometry">
            <mxPoint x="350" y="150" as="sourcePoint" />
            <mxPoint x="460" y="370" as="targetPoint" />
          </mxGeometry>
        </mxCell>
        <mxCell id="xfFFfN3VhaVvBuw0yQ8A-21" value="" style="endArrow=classic;startArrow=classic;html=1;rounded=0;exitX=0.5;exitY=0;exitDx=0;exitDy=0;exitPerimeter=0;entryX=0.5;entryY=1;entryDx=0;entryDy=0;" edge="1" parent="1" source="uZB3BlQuaGmwkZELH0Op-1" target="xfFFfN3VhaVvBuw0yQ8A-3">
          <mxGeometry width="50" height="50" relative="1" as="geometry">
            <mxPoint x="405" y="280" as="sourcePoint" />
            <mxPoint x="455" y="230" as="targetPoint" />
          </mxGeometry>
        </mxCell>
        <mxCell id="xfFFfN3VhaVvBuw0yQ8A-23" value="" style="endArrow=classic;startArrow=classic;html=1;rounded=0;exitX=1;exitY=0;exitDx=0;exitDy=0;entryX=0;entryY=1;entryDx=0;entryDy=0;" edge="1" parent="1" source="xfFFfN3VhaVvBuw0yQ8A-3" target="uZB3BlQuaGmwkZELH0Op-34">
          <mxGeometry width="50" height="50" relative="1" as="geometry">
            <mxPoint x="430" y="330" as="sourcePoint" />
            <mxPoint x="430" y="230" as="targetPoint" />
          </mxGeometry>
        </mxCell>
        <mxCell id="xfFFfN3VhaVvBuw0yQ8A-24" value="" style="endArrow=classic;startArrow=classic;html=1;rounded=0;entryX=0;entryY=1;entryDx=0;entryDy=0;exitX=0.75;exitY=0;exitDx=0;exitDy=0;" edge="1" parent="1" source="uZB3BlQuaGmwkZELH0Op-76" target="uZB3BlQuaGmwkZELH0Op-77">
          <mxGeometry width="50" height="50" relative="1" as="geometry">
            <mxPoint x="230" y="670" as="sourcePoint" />
            <mxPoint x="303" y="614" as="targetPoint" />
          </mxGeometry>
        </mxCell>
      </root>
    </mxGraphModel>
  </diagram>
</mxfile>
